<?xml version="1.0"?>
<svg width="60.00000000000001" height="60.00000000000001" xmlns="http://www.w3.org/2000/svg" xmlns:svg="http://www.w3.org/2000/svg">
 <g>
  <title>Layer 1</title>
  <g id="svg_1">
   <g id="svg_2">
    <path fill="#ffffff" id="svg_3" d="m2,13l10,0c0.6,0 1,-0.4 1,-1l0,-10l33,0l0,5l2,0l0,-6c0,-0.6 -0.4,-1 -1,-1l-35,0l0,0c-0.1,0 -0.2,0 -0.3,0.1l-0.1,0c-0.1,0.1 -0.2,0.1 -0.3,0.2l0,0l-11,11l0,0c-0.1,0.1 -0.1,0.2 -0.2,0.3l0,0.1c0,0.1 -0.1,0.2 -0.1,0.3l0,0l0,47c0,0.6 0.4,1 1,1l29,0l0,-2l-28,0l0,-45l0,0zm1.4,-2l3.8,-3.8l3.8,-3.8l0,7.6l-7.6,0z"/>
    <path fill="#ffffff" id="svg_4" d="m53,39l-10,0c-3.9,0 -7,3.1 -7,7l0,14l2,0l0,-14c0,-2.8 2.2,-5 5,-5l1.3,0l2.8,7.4c0.1,0.3 0.5,0.6 0.9,0.6s0.8,-0.3 1.1,-0.6l2.8,-7.4l1.1,0c2.8,0 5,2.2 5,5l0,14l2,0l0,-14c0,-3.9 -3.1,-7 -7,-7zm-4.9,6.2l-1.6,-4.2l3.2,0l-1.6,4.2z"/>
    <rect fill="#ffffff" id="svg_5" height="2" width="2" y="51" x="47"/>
    <rect fill="#ffffff" id="svg_6" height="2" width="2" y="55" x="47"/>
    <path fill="#ffffff" id="svg_7" d="m47,38l2,0c2.8,0 5,-2.2 5,-5l0,-3c0,-2.8 -2.2,-5 -5,-5l-2,0c-2.8,0 -5,2.2 -5,5l0,3c0,2.8 2.2,5 5,5zm-3,-8c0,-1.7 1.3,-3 3,-3l2,0c1.7,0 3,1.3 3,3l0,3c0,1.7 -1.3,3 -3,3l-2,0c-1.7,0 -3,-1.3 -3,-3l0,-3z"/>
    <rect fill="#ffffff" id="svg_8" height="11" width="2" y="49" x="41"/>
    <rect fill="#ffffff" id="svg_9" height="11" width="2" y="49" x="53"/>
    <path fill="#ffffff" id="svg_10" d="m59,14l-3,0l0,-3c0,-0.6 -0.4,-1 -1,-1l-21,0l0,2l20,0l0,2l-3,0l-28,0c-0.2,0 -0.4,0.1 -0.5,0.1l-7.9,3c-0.3,0.1 -0.6,0.5 -0.6,0.9s0.3,0.8 0.6,0.9l7.9,3c0.1,0 0.2,0.1 0.3,0.1s0.2,0 0.2,0l28,0l8,0c0.6,0 1,-0.4 1,-1l0,-6c0,-0.6 -0.4,-1 -1,-1zm-37,2.5l0,3.1l-4.2,-1.6l4.2,-1.5zm2,-0.5l26,0l0,4l-26,0l0,-4zm34,4l-6,0l0,-4l6,0l0,4z"/>
    <rect fill="#ffffff" id="svg_11" height="2" width="10" y="28" x="6"/>
    <rect fill="#ffffff" id="svg_12" height="2" width="10" y="32" x="6"/>
    <rect fill="#ffffff" id="svg_13" height="2" width="10" y="36" x="6"/>
    <rect fill="#ffffff" id="svg_14" height="2" width="10" y="40" x="6"/>
    <rect fill="#ffffff" id="svg_15" height="2" width="10" y="28" x="20"/>
    <rect fill="#ffffff" id="svg_16" height="2" width="10" y="32" x="20"/>
    <rect fill="#ffffff" id="svg_17" height="2" width="5" y="28" x="34"/>
    <rect fill="#ffffff" id="svg_18" height="2" width="5" y="32" x="34"/>
    <rect fill="#ffffff" id="svg_19" height="2" width="10" y="36" x="20"/>
    <rect fill="#ffffff" id="svg_20" height="2" width="10" y="40" x="20"/>
    <rect fill="#ffffff" id="svg_21" height="2" width="2" y="45" x="6"/>
    <rect fill="#ffffff" id="svg_22" height="2" width="2" y="45" x="10"/>
    <rect fill="#ffffff" id="svg_23" height="2" width="2" y="45" x="14"/>
    <rect fill="#ffffff" id="svg_24" height="2" width="2" y="45" x="20"/>
    <rect fill="#ffffff" id="svg_25" height="2" width="2" y="45" x="24"/>
    <rect fill="#ffffff" id="svg_26" height="2" width="2" y="45" x="28"/>
    <rect fill="#ffffff" id="svg_27" height="2" width="2" y="49" x="6"/>
    <rect fill="#ffffff" id="svg_28" height="2" width="2" y="49" x="10"/>
    <rect fill="#ffffff" id="svg_29" height="2" width="2" y="49" x="14"/>
    <rect fill="#ffffff" id="svg_30" height="2" width="2" y="49" x="20"/>
    <rect fill="#ffffff" id="svg_31" height="2" width="2" y="49" x="24"/>
    <rect fill="#ffffff" id="svg_32" height="2" width="2" y="49" x="28"/>
    <rect fill="#ffffff" id="svg_33" height="2" width="2" y="53" x="6"/>
    <rect fill="#ffffff" id="svg_34" height="2" width="2" y="53" x="10"/>
    <rect fill="#ffffff" id="svg_35" height="2" width="2" y="53" x="14"/>
    <rect fill="#ffffff" id="svg_36" height="2" width="2" y="53" x="20"/>
    <rect fill="#ffffff" id="svg_37" height="2" width="2" y="53" x="24"/>
    <rect fill="#ffffff" id="svg_38" height="2" width="2" y="53" x="28"/>
   </g>
  </g>
  <g id="svg_39"/>
  <g id="svg_40"/>
  <g id="svg_41"/>
  <g id="svg_42"/>
  <g id="svg_43"/>
  <g id="svg_44"/>
  <g id="svg_45"/>
  <g id="svg_46"/>
  <g id="svg_47"/>
  <g id="svg_48"/>
  <g id="svg_49"/>
  <g id="svg_50"/>
  <g id="svg_51"/>
  <g id="svg_52"/>
  <g id="svg_53"/>
 </g>
</svg>