<?xml version="1.0"?>
<svg width="600.759" height="600.759" xmlns="http://www.w3.org/2000/svg" xmlns:svg="http://www.w3.org/2000/svg">
 <g>
  <title>Layer 1</title>
  <g id="svg_1">
   <g id="svg_2">
    <path fill="#ffffff" stroke="#ffffff" id="svg_3" d="m203.993,295.287c21.001,0 38.024,17.023 38.024,38.018s-17.023,38.024 -38.024,38.024c-20.998,0 -38.021,-17.029 -38.021,-38.024s17.023,-38.018 38.021,-38.018z"/>
    <path fill="#ffffff" stroke="#ffffff" id="svg_4" d="m574.267,325.822l25.782,-203.262l-184.936,-70.182l-221.834,105.959l-193.279,-81.627l26.099,216.848l-25.014,213.535l205.36,38.521l209.46,-39.892l184.854,42.658l-26.492,-222.558zm-159.839,-251.913l163.811,61.731l-11.277,88.88l-163.273,-41.301l10.739,-109.31zm-21.669,11.283l-8.642,93.06l-0.142,-0.033l-113.046,14.581l-0.677,2.494c-0.142,0.538 -13.258,48.995 -27.08,71.033c-8.946,-5.261 -19.006,-8.784 -29.755,-10.09l-9.164,-81.028l188.506,-90.017zm-17.283,207.574l-98.251,14.815c-5.291,-14.969 -14.999,-27.825 -27.606,-37.022c12.862,-20.531 24.471,-60.278 27.394,-70.77l106.361,-13.728l-7.898,106.705zm-191.207,-116.569l9.079,80.236c-29.864,4.113 -54.358,25.2 -63.336,53.217l-83.779,-12.968l-8.045,-77.706c27.769,-1.838 48.599,-10.875 61.948,-27c12.034,-14.514 15.495,-31.685 16.157,-44.484l67.976,28.705zm-160.082,-67.601l84.465,35.668c-0.242,11.777 -2.905,28.865 -14.443,42.791c-12.037,14.514 -31.182,22.632 -56.998,24.261l-13.024,-102.72zm-1.09,382.325l20.779,-174.402l82.626,12.803c-0.062,1.324 -0.195,2.636 -0.195,3.989c0,18.164 6.307,34.856 16.807,48.108l-42.912,34.459l-13.521,86.959l-63.584,-11.916zm161.878,30.358l-90.721,-17.017l13.104,-84.252l40.837,-32.781c12.528,12.95 29.48,21.593 48.421,23.377l-11.641,110.673zm-43.246,-187.968c0,-34.348 27.935,-62.281 62.264,-62.281c34.347,0 62.282,27.934 62.282,62.281c0,34.33 -27.935,62.265 -62.282,62.265c-34.33,0.006 -62.264,-27.935 -62.264,-62.265zm64.69,191.987l-1.75,-0.33l12.12,-115.119c36.756,-6.135 64.9,-38.076 64.9,-76.556c0,-2.081 -0.15,-4.114 -0.313,-6.159l96.038,-14.481l8.016,81.911c-42.132,1.98 -73.625,14.932 -93.449,38.857c-23.114,27.923 -24.205,62.737 -23.008,79.949l-62.554,11.928zm70.247,-13.381c-0.931,-16.337 0.419,-48.397 21.264,-73.565c18.438,-22.26 48.182,-34.271 88.244,-36.091l8.535,87.154l-118.043,22.502zm126.307,-320.946l163.03,41.225l-9.776,77.017l-160.974,-19.431l7.72,-98.811zm131.083,184.774l-74.175,-8.819l13.584,131.58l-59.428,-12.773l-16.852,-176.034l1.732,-0.272l155.612,19.754l23.022,193.354l-96.298,-22.213l-12.714,-124.599l66.111,7.672l-0.594,-7.65z"/>
   </g>
  </g>
  <g id="svg_5"/>
  <g id="svg_6"/>
  <g id="svg_7"/>
  <g id="svg_8"/>
  <g id="svg_9"/>
  <g id="svg_10"/>
  <g id="svg_11"/>
  <g id="svg_12"/>
  <g id="svg_13"/>
  <g id="svg_14"/>
  <g id="svg_15"/>
  <g id="svg_16"/>
  <g id="svg_17"/>
  <g id="svg_18"/>
  <g id="svg_19"/>
 </g>
</svg>